<svg width="36" height="342" viewBox="0 0 36 342" fill="none" xmlns="http://www.w3.org/2000/svg">
<path d="M30.11 195.33C22.36 226.73 0.349976 226.62 0.349976 294.44C0.349976 323.33 0.349976 335.51 0.349976 342.04C0.349976 281.09 30.11 279.15 30.11 234.11C30.11 223.36 30.11 209.93 30.11 195.33Z" fill="#EC6724"/>
<path d="M54.28 0.160004C46.84 23.05 30.11 46.69 30.11 68.73C30.11 90.31 30.11 148.78 30.11 195.34C30.11 209.94 30.11 223.37 30.11 234.12C30.11 279.16 0.349976 281.1 0.349976 342.05C0.349976 342.32 0.349976 342.57 0.349976 342.82H54.28V0.160004Z" fill="#27424E"/>
</svg>
