<svg width="377" height="42" viewBox="0 0 377 42" fill="none" xmlns="http://www.w3.org/2000/svg">
<path d="M21.7 41.11C28.24 41.11 40.4199 41.11 69.3099 41.11C137.13 41.11 137.02 19.1 168.42 11.35C153.82 11.35 140.39 11.35 129.64 11.35C84.6 11.35 82.66 41.11 21.7 41.11Z" fill="#EC6724"/>
<path d="M129.63 11.35C140.38 11.35 153.81 11.35 168.41 11.35C214.97 11.35 273.44 11.35 295.02 11.35C321.39 11.35 350.05 -12.59 376.96 -15.92H0V41.11C14.26 41.11 13.09 41.11 21.7 41.11C82.66 41.11 84.6 11.35 129.63 11.35Z" fill="#27424E"/>
</svg>
