<svg width="130" height="40" viewBox="0 0 130 40" fill="none" xmlns="http://www.w3.org/2000/svg">
<path d="M15.1964 31.6086C20.2072 31.6086 24.5944 29.7815 28.358 26.1383V13.7098L15.273 19.9241H21.7936V22.4076C20.3932 23.6876 17.8659 24.6942 15.3496 24.6942C12.9864 24.6942 11.039 23.9174 9.60581 22.3638C8.18354 20.854 7.39583 18.8519 7.42865 16.7732C7.37395 14.6835 8.1726 12.6705 9.63863 11.1826C11.1156 9.67276 13.0193 8.9288 15.3496 8.9288C17.855 8.9288 20.2619 9.86969 22.1 11.5655L26.7169 6.17178C24.0802 3.68827 19.9228 1.98154 15.4153 1.98154C11.0281 1.98154 7.34113 3.38193 4.38718 6.17178C1.47699 8.96162 0 12.5282 0 16.8388C0 21.1056 1.40039 24.6394 4.23399 27.4402C7.08948 30.2082 10.7327 31.6086 15.1964 31.6086ZM35.8085 7.84568C37.931 7.88944 39.6924 6.19366 39.7361 4.07119C39.7361 4.00554 39.7361 3.95084 39.7361 3.8852C39.769 1.77367 38.0732 0.0341169 35.9616 0.00129522C35.9179 0.00129522 35.8632 0.00129522 35.8194 0.00129522C33.686 -0.0534076 31.9136 1.63144 31.8589 3.76485C31.8589 3.80861 31.8589 3.84144 31.8589 3.8852C31.7933 6.00767 33.4453 7.7691 35.5678 7.84568C35.6444 7.84568 35.7319 7.84568 35.8085 7.84568ZM39.2657 9.74934H32.395V31.1819H39.2657V9.74934ZM54.0573 31.7618C57.5146 31.7618 60.3481 30.6786 62.4815 28.5015C64.6368 26.3899 65.8075 23.4798 65.7419 20.4711C65.8075 17.4515 64.6259 14.5522 62.4815 12.4407C60.3481 10.2307 57.5146 9.13667 54.0573 9.13667C50.6001 9.13667 47.8103 10.2198 45.6331 12.4407C43.5106 14.5741 42.34 17.4734 42.4056 20.482C42.34 23.4907 43.4997 26.3899 45.6331 28.5234C47.8103 30.6786 50.6001 31.7618 54.0573 31.7618ZM54.0573 25.3506C52.7773 25.3725 51.541 24.8692 50.6439 23.9502C49.7249 23.0093 49.2216 21.7402 49.2435 20.4164C49.2216 19.1363 49.7249 17.9001 50.6439 17.0029C51.5191 16.062 52.7663 15.5369 54.0573 15.5697C55.3374 15.5478 56.5737 16.0511 57.4708 16.9701C58.4226 17.8672 58.9368 19.1254 58.904 20.4273C58.9368 21.7402 58.4336 23.0203 57.5036 23.9611C56.6065 24.8801 55.3593 25.3834 54.0573 25.3506ZM82.0105 9.20231C79.5707 9.20231 77.5029 10.0557 69.0787 9.74934V40H75.9494V29.3986C77.6014 30.9412 79.7896 31.7727 82.0433 31.7289C84.8879 31.7946 87.6121 30.6021 89.4938 28.4686C91.4741 26.2696 92.5462 23.3922 92.4806 20.4383C92.4806 17.2983 91.5069 14.6179 89.5266 12.4845C87.5683 10.2964 85.0848 9.20231 82.0105 9.20231ZM85.5115 20.5039C85.5333 21.8058 85.041 23.0531 84.1548 23.994C83.2687 24.9567 82.0105 25.4819 80.6976 25.4272C79.3847 25.4709 78.1047 24.9458 77.1967 23.994C76.3105 23.0531 75.8181 21.7949 75.84 20.5039C75.84 17.7141 77.8968 15.5697 80.6976 15.5697C83.4874 15.5697 85.5115 17.7141 85.5115 20.5039ZM99.406 7.84568C101.528 7.88944 103.29 6.19366 103.334 4.07119C103.334 4.00554 103.334 3.95084 103.334 3.8852C103.366 1.77367 101.671 0.0341169 99.5591 0.00129522C99.5153 0.00129522 99.4607 0.00129522 99.4169 0.00129522C97.2835 -0.0534076 95.5111 1.63144 95.4564 3.76485C95.4564 3.80861 95.4564 3.84144 95.4564 3.8852C95.3908 6.00767 97.0428 7.7691 99.1653 7.84568C99.2418 7.84568 99.3185 7.84568 99.406 7.84568ZM102.863 9.74934H95.9925V31.1819H102.863V9.74934ZM117.655 31.7618C121.112 31.7618 123.946 30.6786 126.079 28.5015C128.234 26.3899 129.405 23.4797 129.339 20.4602C129.405 17.4515 128.223 14.5413 126.079 12.4298C123.946 10.2198 121.112 9.12573 117.655 9.12573C114.198 9.12573 111.408 10.2088 109.231 12.4298C107.108 14.5632 105.937 17.4624 106.003 20.4711C105.937 23.4798 107.097 26.379 109.231 28.5124C111.408 30.6786 114.198 31.7618 117.655 31.7618ZM117.655 25.3506C116.375 25.3725 115.139 24.8692 114.241 23.9502C113.322 23.0093 112.819 21.7402 112.841 20.4164C112.819 19.1363 113.322 17.9001 114.241 17.0029C115.117 16.062 116.364 15.5369 117.655 15.5697C118.935 15.5478 120.171 16.0511 121.068 16.9701C122.02 17.8672 122.534 19.1254 122.502 20.4273C122.534 21.7402 122.031 23.0203 121.101 23.9611C120.204 24.8801 118.946 25.3834 117.655 25.3506Z" fill="#27424E"/>
<path d="M15.1964 31.6086C20.2072 31.6086 24.5944 29.7815 28.358 26.1383V13.7099L15.273 19.9241H21.7936V22.4076C20.3932 23.6876 17.8659 24.6942 15.3496 24.6942C12.9864 24.6942 11.039 23.9174 9.60581 22.3638C8.18354 20.854 7.39583 18.8519 7.42865 16.7732C7.37395 14.6836 8.1726 12.6705 9.63863 11.1826C11.1156 9.67278 13.0193 8.92882 15.3496 8.92882C17.855 8.92882 20.2619 9.86972 22.1 11.5655L26.7169 6.17181C24.0802 3.6883 19.9228 1.98157 15.4153 1.98157C11.0281 1.98157 7.34113 3.38196 4.38718 6.17181C1.47699 8.96165 0 12.5283 0 16.8389C0 21.1057 1.40039 24.6395 4.23399 27.4403C7.08948 30.2082 10.7327 31.6086 15.1964 31.6086Z" fill="#EC6724"/>
</svg>
